<mxfile host="app.diagrams.net" modified="2023-02-10T10:36:40.238Z" agent="5.0 (Windows NT 10.0; Win64; x64) AppleWebKit/537.36 (KHTML, like Gecko) Chrome/109.0.0.0 Safari/537.36 Edg/109.0.1518.78" etag="Ay7YtAHB68ME7ErWTp1o" version="20.8.19" type="github">
  <diagram name="Page-1" id="c7558073-3199-34d8-9f00-42111426c3f3">
    <mxGraphModel dx="1436" dy="795" grid="1" gridSize="10" guides="1" tooltips="1" connect="1" arrows="1" fold="1" page="1" pageScale="1" pageWidth="826" pageHeight="1169" background="none" math="0" shadow="0">
      <root>
        <mxCell id="0" />
        <mxCell id="1" parent="0" />
        <mxCell id="varm7BmF9Hz2hoY3t86C-212" style="edgeStyle=orthogonalEdgeStyle;rounded=1;orthogonalLoop=1;jettySize=auto;html=1;exitX=0.25;exitY=1;exitDx=0;exitDy=0;entryX=0.5;entryY=0;entryDx=0;entryDy=0;labelBorderColor=none;fontSize=14;fontColor=#000000;" edge="1" parent="1" source="varm7BmF9Hz2hoY3t86C-103" target="varm7BmF9Hz2hoY3t86C-161">
          <mxGeometry relative="1" as="geometry" />
        </mxCell>
        <mxCell id="varm7BmF9Hz2hoY3t86C-103" value="mpbridge dev&amp;nbsp; [OPTIONS]&amp;nbsp;[Port] [Path]" style="rounded=1;whiteSpace=wrap;html=1;arcSize=50;strokeColor=none;strokeWidth=1;fillColor=#1CA5B8;fontColor=#ffffff;whiteSpace=wrap;align=left;verticalAlign=middle;spacingLeft=0;fontStyle=1;fontSize=14;spacing=10;" vertex="1" parent="1">
          <mxGeometry x="325" y="190" width="290" height="20" as="geometry" />
        </mxCell>
        <mxCell id="varm7BmF9Hz2hoY3t86C-105" value="Port must be set." style="rounded=1;whiteSpace=wrap;html=1;arcSize=50;strokeColor=none;strokeWidth=1;fillColor=#FFBC26;fontColor=#000000;whiteSpace=wrap;align=left;verticalAlign=middle;spacingLeft=0;fontStyle=1;fontSize=14;spacing=10;" vertex="1" parent="1">
          <mxGeometry x="495" y="140" width="135" height="20" as="geometry" />
        </mxCell>
        <mxCell id="varm7BmF9Hz2hoY3t86C-110" value="&lt;div&gt;Set the path you want to work on.&lt;/div&gt;&lt;div&gt;Default to current path of terminal if not set.&lt;/div&gt;" style="rounded=1;whiteSpace=wrap;html=1;arcSize=50;strokeColor=none;strokeWidth=1;fillColor=#FFBC26;fontColor=#000000;whiteSpace=wrap;align=left;verticalAlign=middle;spacingLeft=0;fontStyle=1;fontSize=14;spacing=10;" vertex="1" parent="1">
          <mxGeometry x="510" y="240" width="320" height="40" as="geometry" />
        </mxCell>
        <mxCell id="varm7BmF9Hz2hoY3t86C-157" style="edgeStyle=orthogonalEdgeStyle;rounded=0;orthogonalLoop=1;jettySize=auto;html=1;exitX=0.5;exitY=0;exitDx=0;exitDy=0;entryX=0.25;entryY=1;entryDx=0;entryDy=0;" edge="1" parent="1" source="varm7BmF9Hz2hoY3t86C-122" target="varm7BmF9Hz2hoY3t86C-105">
          <mxGeometry relative="1" as="geometry" />
        </mxCell>
        <mxCell id="varm7BmF9Hz2hoY3t86C-122" value="" style="rounded=1;whiteSpace=wrap;html=1;fillStyle=auto;fillColor=none;" vertex="1" parent="1">
          <mxGeometry x="510" y="180" width="40" height="40" as="geometry" />
        </mxCell>
        <mxCell id="varm7BmF9Hz2hoY3t86C-158" style="edgeStyle=orthogonalEdgeStyle;rounded=0;orthogonalLoop=1;jettySize=auto;html=1;exitX=0.5;exitY=1;exitDx=0;exitDy=0;entryX=0.25;entryY=0;entryDx=0;entryDy=0;" edge="1" parent="1" source="varm7BmF9Hz2hoY3t86C-123" target="varm7BmF9Hz2hoY3t86C-110">
          <mxGeometry relative="1" as="geometry" />
        </mxCell>
        <mxCell id="varm7BmF9Hz2hoY3t86C-123" value="" style="rounded=1;whiteSpace=wrap;html=1;fillStyle=auto;fillColor=none;" vertex="1" parent="1">
          <mxGeometry x="550" y="180" width="50" height="40" as="geometry" />
        </mxCell>
        <mxCell id="varm7BmF9Hz2hoY3t86C-130" style="edgeStyle=orthogonalEdgeStyle;rounded=1;orthogonalLoop=1;jettySize=auto;html=1;exitX=0.75;exitY=1;exitDx=0;exitDy=0;entryX=0;entryY=0.5;entryDx=0;entryDy=0;startArrow=none;" edge="1" parent="1" source="varm7BmF9Hz2hoY3t86C-129" target="varm7BmF9Hz2hoY3t86C-133">
          <mxGeometry relative="1" as="geometry">
            <mxPoint x="490" y="260" as="sourcePoint" />
            <mxPoint x="630" y="299.9999999999999" as="targetPoint" />
            <Array as="points">
              <mxPoint x="490" y="330" />
            </Array>
          </mxGeometry>
        </mxCell>
        <mxCell id="varm7BmF9Hz2hoY3t86C-151" style="edgeStyle=orthogonalEdgeStyle;rounded=1;orthogonalLoop=1;jettySize=auto;html=1;exitX=0.75;exitY=1;exitDx=0;exitDy=0;entryX=0;entryY=0.5;entryDx=0;entryDy=0;" edge="1" parent="1" source="varm7BmF9Hz2hoY3t86C-129" target="varm7BmF9Hz2hoY3t86C-150">
          <mxGeometry relative="1" as="geometry" />
        </mxCell>
        <mxCell id="varm7BmF9Hz2hoY3t86C-129" value="" style="rounded=1;whiteSpace=wrap;html=1;fillStyle=auto;fillColor=none;" vertex="1" parent="1">
          <mxGeometry x="430" y="180" width="80" height="40" as="geometry" />
        </mxCell>
        <mxCell id="varm7BmF9Hz2hoY3t86C-146" style="edgeStyle=orthogonalEdgeStyle;rounded=0;orthogonalLoop=1;jettySize=auto;html=1;exitX=1;exitY=0.5;exitDx=0;exitDy=0;entryX=0;entryY=0.5;entryDx=0;entryDy=0;" edge="1" parent="1" source="varm7BmF9Hz2hoY3t86C-133" target="varm7BmF9Hz2hoY3t86C-143">
          <mxGeometry relative="1" as="geometry" />
        </mxCell>
        <mxCell id="varm7BmF9Hz2hoY3t86C-159" style="edgeStyle=orthogonalEdgeStyle;rounded=0;orthogonalLoop=1;jettySize=auto;html=1;exitX=0.5;exitY=1;exitDx=0;exitDy=0;entryX=0.25;entryY=0;entryDx=0;entryDy=0;" edge="1" parent="1" source="varm7BmF9Hz2hoY3t86C-133" target="varm7BmF9Hz2hoY3t86C-147">
          <mxGeometry relative="1" as="geometry" />
        </mxCell>
        <mxCell id="varm7BmF9Hz2hoY3t86C-133" value="--auto-reset" style="rounded=1;whiteSpace=wrap;html=1;fontSize=14;align=left;fillColor=#1CA5B8;strokeColor=none;fontColor=#ffffff;arcSize=50;strokeWidth=1;spacingLeft=0;fontStyle=1;spacing=10;" vertex="1" parent="1">
          <mxGeometry x="545" y="320" width="105" height="20" as="geometry" />
        </mxCell>
        <mxCell id="varm7BmF9Hz2hoY3t86C-144" value="" style="group" vertex="1" connectable="0" parent="1">
          <mxGeometry x="695" y="300" width="54.5" height="60" as="geometry" />
        </mxCell>
        <mxCell id="varm7BmF9Hz2hoY3t86C-137" value="soft" style="rounded=1;whiteSpace=wrap;html=1;fontSize=14;align=left;fillColor=#1CA5B8;strokeColor=none;fontColor=#ffffff;arcSize=50;strokeWidth=1;spacingLeft=0;fontStyle=1;spacing=10;" vertex="1" parent="varm7BmF9Hz2hoY3t86C-144">
          <mxGeometry y="40" width="49" height="20" as="geometry" />
        </mxCell>
        <mxCell id="varm7BmF9Hz2hoY3t86C-145" value="" style="group" vertex="1" connectable="0" parent="varm7BmF9Hz2hoY3t86C-144">
          <mxGeometry x="-5.5" width="60" height="60" as="geometry" />
        </mxCell>
        <mxCell id="varm7BmF9Hz2hoY3t86C-136" value="hard" style="rounded=1;whiteSpace=wrap;html=1;fontSize=14;align=left;fillColor=#1CA5B8;strokeColor=none;fontColor=#ffffff;arcSize=50;strokeWidth=1;spacingLeft=0;fontStyle=1;spacing=10;" vertex="1" parent="varm7BmF9Hz2hoY3t86C-145">
          <mxGeometry x="5.5" width="49" height="20" as="geometry" />
        </mxCell>
        <mxCell id="varm7BmF9Hz2hoY3t86C-142" value="soft" style="rounded=1;whiteSpace=wrap;html=1;fontSize=14;align=left;fillColor=#1CA5B8;strokeColor=none;fontColor=#ffffff;arcSize=50;strokeWidth=1;spacingLeft=0;fontStyle=1;spacing=10;" vertex="1" parent="varm7BmF9Hz2hoY3t86C-145">
          <mxGeometry x="5.5" y="40" width="49" height="20" as="geometry" />
        </mxCell>
        <mxCell id="varm7BmF9Hz2hoY3t86C-143" value="Or" style="text;html=1;strokeColor=none;fillColor=none;align=center;verticalAlign=middle;whiteSpace=wrap;rounded=0;" vertex="1" parent="varm7BmF9Hz2hoY3t86C-145">
          <mxGeometry y="15" width="60" height="30" as="geometry" />
        </mxCell>
        <mxCell id="varm7BmF9Hz2hoY3t86C-147" value="Default to not reset if not set." style="rounded=1;whiteSpace=wrap;html=1;arcSize=50;strokeColor=none;strokeWidth=1;fillColor=#FFBC26;fontColor=#000000;whiteSpace=wrap;align=left;verticalAlign=middle;spacingLeft=0;fontStyle=1;fontSize=14;spacing=10;" vertex="1" parent="1">
          <mxGeometry x="545" y="370" width="215" height="20" as="geometry" />
        </mxCell>
        <mxCell id="varm7BmF9Hz2hoY3t86C-160" style="edgeStyle=orthogonalEdgeStyle;rounded=0;orthogonalLoop=1;jettySize=auto;html=1;exitX=0.5;exitY=1;exitDx=0;exitDy=0;entryX=0.25;entryY=0;entryDx=0;entryDy=0;" edge="1" parent="1" source="varm7BmF9Hz2hoY3t86C-150" target="varm7BmF9Hz2hoY3t86C-156">
          <mxGeometry relative="1" as="geometry" />
        </mxCell>
        <mxCell id="varm7BmF9Hz2hoY3t86C-150" value="--no-prompt" style="rounded=1;whiteSpace=wrap;html=1;fontSize=14;align=left;fillColor=#1CA5B8;strokeColor=none;fontColor=#ffffff;arcSize=50;strokeWidth=1;spacingLeft=0;fontStyle=1;spacing=10;" vertex="1" parent="1">
          <mxGeometry x="545" y="410" width="105" height="20" as="geometry" />
        </mxCell>
        <mxCell id="varm7BmF9Hz2hoY3t86C-156" value="Disable prompt.&lt;br&gt;Auto&amp;nbsp;Clean Sync &amp;amp; enter&amp;nbsp;REPL." style="rounded=1;whiteSpace=wrap;html=1;arcSize=50;strokeColor=none;strokeWidth=1;fillColor=#FFBC26;fontColor=#000000;whiteSpace=wrap;align=left;verticalAlign=middle;spacingLeft=0;fontStyle=1;fontSize=14;spacing=10;" vertex="1" parent="1">
          <mxGeometry x="545" y="450" width="245" height="40" as="geometry" />
        </mxCell>
        <mxCell id="varm7BmF9Hz2hoY3t86C-169" value="" style="edgeStyle=orthogonalEdgeStyle;rounded=1;orthogonalLoop=1;jettySize=auto;html=1;" edge="1" parent="1" source="varm7BmF9Hz2hoY3t86C-161" target="varm7BmF9Hz2hoY3t86C-168">
          <mxGeometry relative="1" as="geometry" />
        </mxCell>
        <mxCell id="varm7BmF9Hz2hoY3t86C-161" value="Start&amp;nbsp;" style="rounded=1;whiteSpace=wrap;html=1;arcSize=50;strokeColor=none;strokeWidth=1;fillColor=#33A64C;fontColor=#FFFFFF;whiteSpace=wrap;align=center;verticalAlign=middle;spacingLeft=0;fontStyle=1;fontSize=14;spacing=10;fillStyle=auto;" vertex="1" parent="1">
          <mxGeometry x="45" y="540" width="60" height="20" as="geometry" />
        </mxCell>
        <mxCell id="varm7BmF9Hz2hoY3t86C-171" value="yes" style="edgeStyle=orthogonalEdgeStyle;rounded=1;orthogonalLoop=1;jettySize=auto;html=1;" edge="1" parent="1" source="varm7BmF9Hz2hoY3t86C-168" target="varm7BmF9Hz2hoY3t86C-170">
          <mxGeometry relative="1" as="geometry" />
        </mxCell>
        <mxCell id="varm7BmF9Hz2hoY3t86C-187" value="no" style="edgeStyle=orthogonalEdgeStyle;rounded=1;orthogonalLoop=1;jettySize=auto;html=1;labelBorderColor=none;fontColor=default;" edge="1" parent="1" source="varm7BmF9Hz2hoY3t86C-168" target="varm7BmF9Hz2hoY3t86C-186">
          <mxGeometry relative="1" as="geometry" />
        </mxCell>
        <mxCell id="varm7BmF9Hz2hoY3t86C-168" value="--no-prompt" style="rhombus;whiteSpace=wrap;html=1;fontSize=14;fillColor=#33A64C;strokeColor=none;fontColor=#FFFFFF;rounded=1;arcSize=50;strokeWidth=1;spacingLeft=0;fontStyle=1;spacing=10;fillStyle=auto;" vertex="1" parent="1">
          <mxGeometry x="175" y="510" width="115" height="80" as="geometry" />
        </mxCell>
        <mxCell id="varm7BmF9Hz2hoY3t86C-175" value="" style="edgeStyle=orthogonalEdgeStyle;rounded=1;orthogonalLoop=1;jettySize=auto;html=1;fontColor=#000000;" edge="1" parent="1" source="varm7BmF9Hz2hoY3t86C-170" target="varm7BmF9Hz2hoY3t86C-174">
          <mxGeometry relative="1" as="geometry" />
        </mxCell>
        <mxCell id="varm7BmF9Hz2hoY3t86C-211" style="edgeStyle=orthogonalEdgeStyle;rounded=1;orthogonalLoop=1;jettySize=auto;html=1;exitX=0.75;exitY=1;exitDx=0;exitDy=0;entryX=0;entryY=0.5;entryDx=0;entryDy=0;labelBorderColor=none;fontSize=14;fontColor=#000000;" edge="1" parent="1" source="varm7BmF9Hz2hoY3t86C-170" target="varm7BmF9Hz2hoY3t86C-204">
          <mxGeometry relative="1" as="geometry">
            <Array as="points">
              <mxPoint x="446" y="580" />
              <mxPoint x="490" y="580" />
              <mxPoint x="490" y="705" />
            </Array>
          </mxGeometry>
        </mxCell>
        <mxCell id="varm7BmF9Hz2hoY3t86C-170" value="Clean Sync files" style="whiteSpace=wrap;html=1;fontSize=14;fillColor=#33A64C;strokeColor=none;fontColor=#FFFFFF;rounded=1;arcSize=50;strokeWidth=1;spacingLeft=0;fontStyle=1;spacing=10;fillStyle=auto;" vertex="1" parent="1">
          <mxGeometry x="345" y="540" width="135" height="20" as="geometry" />
        </mxCell>
        <mxCell id="varm7BmF9Hz2hoY3t86C-182" value="yes" style="edgeStyle=orthogonalEdgeStyle;rounded=1;orthogonalLoop=1;jettySize=auto;html=1;fontColor=default;labelBorderColor=none;" edge="1" parent="1" source="varm7BmF9Hz2hoY3t86C-174" target="varm7BmF9Hz2hoY3t86C-181">
          <mxGeometry relative="1" as="geometry" />
        </mxCell>
        <mxCell id="varm7BmF9Hz2hoY3t86C-199" value="no" style="edgeStyle=orthogonalEdgeStyle;rounded=1;orthogonalLoop=1;jettySize=auto;html=1;exitX=0.5;exitY=1;exitDx=0;exitDy=0;entryX=0.5;entryY=1;entryDx=0;entryDy=0;labelBorderColor=none;fontSize=14;fontColor=#000000;" edge="1" parent="1" source="varm7BmF9Hz2hoY3t86C-174" target="varm7BmF9Hz2hoY3t86C-195">
          <mxGeometry relative="1" as="geometry" />
        </mxCell>
        <mxCell id="varm7BmF9Hz2hoY3t86C-174" value="--auto-reset" style="rhombus;whiteSpace=wrap;html=1;fontSize=14;fillColor=#33A64C;strokeColor=none;fontColor=#FFFFFF;rounded=1;arcSize=50;strokeWidth=1;spacingLeft=0;fontStyle=1;spacing=10;fillStyle=auto;" vertex="1" parent="1">
          <mxGeometry x="510" y="510" width="135" height="80" as="geometry" />
        </mxCell>
        <mxCell id="varm7BmF9Hz2hoY3t86C-196" value="" style="edgeStyle=orthogonalEdgeStyle;rounded=1;orthogonalLoop=1;jettySize=auto;html=1;labelBorderColor=none;fontSize=14;fontColor=#FFFFFF;" edge="1" parent="1" source="varm7BmF9Hz2hoY3t86C-181" target="varm7BmF9Hz2hoY3t86C-195">
          <mxGeometry relative="1" as="geometry" />
        </mxCell>
        <mxCell id="varm7BmF9Hz2hoY3t86C-181" value="reset device" style="whiteSpace=wrap;html=1;fontSize=14;fillColor=#33A64C;strokeColor=none;fontColor=#FFFFFF;rounded=1;arcSize=50;strokeWidth=1;spacingLeft=0;fontStyle=1;spacing=10;fillStyle=auto;" vertex="1" parent="1">
          <mxGeometry x="700" y="540" width="120" height="20" as="geometry" />
        </mxCell>
        <mxCell id="varm7BmF9Hz2hoY3t86C-192" value="" style="edgeStyle=orthogonalEdgeStyle;rounded=1;orthogonalLoop=1;jettySize=auto;html=1;labelBorderColor=none;fontSize=14;fontColor=#FFFFFF;" edge="1" parent="1" source="varm7BmF9Hz2hoY3t86C-186" target="varm7BmF9Hz2hoY3t86C-190">
          <mxGeometry relative="1" as="geometry" />
        </mxCell>
        <mxCell id="varm7BmF9Hz2hoY3t86C-205" style="edgeStyle=orthogonalEdgeStyle;rounded=1;orthogonalLoop=1;jettySize=auto;html=1;exitX=0.5;exitY=1;exitDx=0;exitDy=0;entryX=0;entryY=0.5;entryDx=0;entryDy=0;labelBorderColor=none;fontSize=14;fontColor=#000000;" edge="1" parent="1" source="varm7BmF9Hz2hoY3t86C-186" target="varm7BmF9Hz2hoY3t86C-204">
          <mxGeometry relative="1" as="geometry" />
        </mxCell>
        <mxCell id="varm7BmF9Hz2hoY3t86C-186" value="Sync files" style="rounded=1;whiteSpace=wrap;html=1;arcSize=50;strokeColor=none;strokeWidth=1;fillColor=#33A64C;fontColor=#FFFFFF;whiteSpace=wrap;align=center;verticalAlign=middle;spacingLeft=0;fontStyle=1;fontSize=14;spacing=10;fillStyle=auto;" vertex="1" parent="1">
          <mxGeometry x="186.25" y="630" width="92.5" height="20" as="geometry" />
        </mxCell>
        <mxCell id="varm7BmF9Hz2hoY3t86C-193" value="" style="edgeStyle=orthogonalEdgeStyle;rounded=1;orthogonalLoop=1;jettySize=auto;html=1;labelBorderColor=none;fontSize=14;fontColor=#FFFFFF;" edge="1" parent="1" source="varm7BmF9Hz2hoY3t86C-190" target="varm7BmF9Hz2hoY3t86C-170">
          <mxGeometry relative="1" as="geometry" />
        </mxCell>
        <mxCell id="varm7BmF9Hz2hoY3t86C-190" value="&lt;font color=&quot;#ffffff&quot; style=&quot;font-size: 14px;&quot;&gt;&lt;b&gt;&amp;nbsp; &amp;nbsp; &amp;nbsp; &lt;br&gt;keyboard Enter&lt;/b&gt;&lt;/font&gt;" style="html=1;strokeWidth=2;shape=manualInput;whiteSpace=wrap;rounded=1;size=26;arcSize=11;fillStyle=auto;strokeColor=none;fillColor=#33a64c;" vertex="1" parent="1">
          <mxGeometry x="345" y="615" width="135" height="50" as="geometry" />
        </mxCell>
        <mxCell id="varm7BmF9Hz2hoY3t86C-198" value="" style="edgeStyle=orthogonalEdgeStyle;rounded=1;orthogonalLoop=1;jettySize=auto;html=1;labelBorderColor=none;fontSize=14;fontColor=#FFFFFF;" edge="1" parent="1" source="varm7BmF9Hz2hoY3t86C-195" target="varm7BmF9Hz2hoY3t86C-197">
          <mxGeometry relative="1" as="geometry" />
        </mxCell>
        <mxCell id="varm7BmF9Hz2hoY3t86C-195" value="REPL" style="whiteSpace=wrap;html=1;fontSize=14;fillColor=#33A64C;strokeColor=none;fontColor=#FFFFFF;rounded=1;arcSize=50;strokeWidth=1;spacingLeft=0;fontStyle=1;spacing=10;fillStyle=auto;" vertex="1" parent="1">
          <mxGeometry x="850" y="540" width="70" height="20" as="geometry" />
        </mxCell>
        <mxCell id="varm7BmF9Hz2hoY3t86C-203" style="edgeStyle=orthogonalEdgeStyle;rounded=1;orthogonalLoop=1;jettySize=auto;html=1;exitX=0.5;exitY=1;exitDx=0;exitDy=0;entryX=0;entryY=0.5;entryDx=0;entryDy=0;labelBorderColor=none;fontSize=14;fontColor=#000000;" edge="1" parent="1" source="varm7BmF9Hz2hoY3t86C-197" target="varm7BmF9Hz2hoY3t86C-168">
          <mxGeometry relative="1" as="geometry">
            <Array as="points">
              <mxPoint x="1018" y="750" />
              <mxPoint x="155" y="750" />
              <mxPoint x="155" y="550" />
            </Array>
          </mxGeometry>
        </mxCell>
        <mxCell id="varm7BmF9Hz2hoY3t86C-197" value="&lt;font color=&quot;#ffffff&quot; style=&quot;font-size: 14px;&quot;&gt;&lt;b&gt;&amp;nbsp; &amp;nbsp; &amp;nbsp; &lt;br&gt;keyboard ctrl+]&lt;/b&gt;&lt;/font&gt;" style="html=1;strokeWidth=2;shape=manualInput;whiteSpace=wrap;rounded=1;size=26;arcSize=11;fillStyle=auto;strokeColor=none;fillColor=#33a64c;" vertex="1" parent="1">
          <mxGeometry x="950" y="525" width="135" height="50" as="geometry" />
        </mxCell>
        <mxCell id="varm7BmF9Hz2hoY3t86C-207" style="edgeStyle=orthogonalEdgeStyle;rounded=1;orthogonalLoop=1;jettySize=auto;html=1;exitX=1;exitY=0.5;exitDx=0;exitDy=0;entryX=0;entryY=0.5;entryDx=0;entryDy=0;labelBorderColor=none;fontSize=14;fontColor=#000000;" edge="1" parent="1" source="varm7BmF9Hz2hoY3t86C-204" target="varm7BmF9Hz2hoY3t86C-206">
          <mxGeometry relative="1" as="geometry" />
        </mxCell>
        <mxCell id="varm7BmF9Hz2hoY3t86C-204" value="&lt;font color=&quot;#ffffff&quot; style=&quot;font-size: 14px;&quot;&gt;&lt;b&gt;&amp;nbsp; &amp;nbsp; &amp;nbsp; &lt;br&gt;keyboard ctrl+C&lt;/b&gt;&lt;/font&gt;" style="html=1;strokeWidth=2;shape=manualInput;whiteSpace=wrap;rounded=1;size=26;arcSize=11;fillStyle=auto;strokeColor=none;fillColor=#33a64c;" vertex="1" parent="1">
          <mxGeometry x="530" y="680" width="135" height="50" as="geometry" />
        </mxCell>
        <mxCell id="varm7BmF9Hz2hoY3t86C-206" value="Exit" style="rounded=1;whiteSpace=wrap;html=1;arcSize=50;strokeColor=none;strokeWidth=1;fillColor=#33A64C;fontColor=#FFFFFF;whiteSpace=wrap;align=center;verticalAlign=middle;spacingLeft=0;fontStyle=1;fontSize=14;spacing=10;fillStyle=auto;" vertex="1" parent="1">
          <mxGeometry x="705" y="695" width="60" height="20" as="geometry" />
        </mxCell>
      </root>
    </mxGraphModel>
  </diagram>
</mxfile>
